<svg version="1.1" id="Layer_1" xmlns="http://www.w3.org/2000/svg" x="0" y="0" viewBox="0 0 512 512" style="enable-background:new 0 0 512 512" xml:space="preserve"><style>.st1{fill:#5861c7}.st7{fill:#ff8354}.st9{fill:#e0734a}.st10{fill:#ffac8c}</style><path style="fill:#b665c2" d="M0 8h512v20H0z"/><path style="fill:#ea82fa" d="M0 8h512v10H0z"/><path d="M198 6.496v23.007a6.496 6.496 0 0 0 6.496 6.496h21.007a6.496 6.496 0 0 1 6.496 6.496V68h48V42.496A6.496 6.496 0 0 1 286.495 36h21.007a6.496 6.496 0 0 0 6.496-6.496V6.496A6.494 6.494 0 0 0 307.504 0H204.496A6.497 6.497 0 0 0 198 6.496z" style="fill:#339"/><path d="M280 68h-48l17.439 20.927a8.541 8.541 0 0 0 13.122 0L280 68z" style="fill:#d476e2"/><path d="M489.5 468h-467c-12.15 0-22 9.85-22 22s9.85 22 22 22h467c12.15 0 22-9.85 22-22s-9.85-22-22-22z" style="fill:#6770e6"/><path class="st1" d="M489.5 492h-467c-8.548 0-15.952-4.878-19.594-12A21.894 21.894 0 0 0 .5 490c0 12.15 9.85 22 22 22h467c12.15 0 22-9.85 22-22 0-3.602-.871-6.999-2.406-10-3.642 7.122-11.046 12-19.594 12z"/><path class="st9" d="M309.03 155H201.206c-39.23 0-71.032 31.802-71.032 71.032v152.129h249.887V226.032c0-39.23-31.802-71.032-71.031-71.032z"/><path class="st7" d="M60.236 385.2v-82.615c0-19.313 15.656-34.969 34.969-34.969 19.313 0 34.969 15.656 34.969 34.969V420.17H95.205c-19.313-.001-34.969-15.657-34.969-34.97z"/><path class="st9" d="M184.65 468.046h-31.976a5.242 5.242 0 0 1-5.242-5.242V437.22h42.46v25.584a5.242 5.242 0 0 1-5.242 5.242zM255.118 420.169H130.18c0 9.417 7.634 17.051 17.051 17.051h215.774c9.417 0 17.051-7.634 17.051-17.051H255.118z"/><path class="st7" d="M450 385.2v-82.615c0-19.313-15.656-34.969-34.969-34.969-19.313 0-34.969 15.656-34.969 34.969V420.17h34.969C434.344 420.169 450 404.513 450 385.2zM309.03 155H201.206c-39.23 0-71.032 31.802-71.032 71.032v20c0-39.23 31.802-71.032 71.032-71.032H309.03c39.23 0 71.032 31.802 71.032 71.032v-20C380.061 186.802 348.259 155 309.03 155z"/><path class="st10" d="M95.205 267.615c-19.313 0-34.969 15.656-34.969 34.969v20c0-19.313 15.656-34.969 34.969-34.969 19.313 0 34.969 15.656 34.969 34.969v-20c0-19.313-15.656-34.969-34.969-34.969zM415.031 267.615c-19.313 0-34.969 15.656-34.969 34.969v20c0-19.313 15.656-34.969 34.969-34.969 19.313 0 34.969 15.656 34.969 34.969v-20c0-19.313-15.656-34.969-34.969-34.969z"/><path class="st7" d="M352.131 350.23H158.105c-15.426 0-27.931 12.505-27.931 27.93v42.008h249.887V378.16c0-15.425-12.505-27.93-27.93-27.93z"/><path class="st9" d="M325.586 468.046h31.976a5.242 5.242 0 0 0 5.242-5.242V437.22h-42.46v25.584a5.242 5.242 0 0 0 5.242 5.242z"/><path class="st1" d="M307.503 0H204.497A6.497 6.497 0 0 0 198 6.497v10A6.497 6.497 0 0 1 204.497 10h103.007a6.497 6.497 0 0 1 6.497 6.497v-10A6.499 6.499 0 0 0 307.503 0z"/></svg>